<svg width="215" height="215" viewBox="0 0 215 215" fill="none" xmlns="http://www.w3.org/2000/svg">
<circle cx="107.5" cy="107.5" r="107.5" fill="#1B1E21"/>
<path d="M116.107 20.008V20.488C115.563 20.504 115.147 20.584 114.859 20.728C114.587 20.872 114.403 21.104 114.307 21.424C114.211 21.744 114.163 22.2 114.163 22.792V37.12C114.067 37.12 113.971 37.12 113.875 37.12C113.795 37.12 113.707 37.12 113.611 37.12L103.531 21.544V34.216C103.531 34.792 103.579 35.248 103.675 35.584C103.787 35.904 103.995 36.136 104.299 36.28C104.619 36.408 105.091 36.488 105.715 36.52V37C105.427 36.968 105.051 36.952 104.587 36.952C104.123 36.936 103.683 36.928 103.267 36.928C102.867 36.928 102.459 36.936 102.043 36.952C101.643 36.952 101.307 36.968 101.035 37V36.52C101.579 36.488 101.987 36.408 102.259 36.28C102.547 36.136 102.739 35.904 102.835 35.584C102.931 35.248 102.979 34.792 102.979 34.216V22.552C102.979 21.96 102.931 21.528 102.835 21.256C102.739 20.968 102.547 20.776 102.259 20.68C101.987 20.568 101.579 20.504 101.035 20.488V20.008C101.307 20.024 101.643 20.04 102.043 20.056C102.459 20.072 102.867 20.08 103.267 20.08C103.619 20.08 103.955 20.072 104.275 20.056C104.595 20.04 104.883 20.024 105.139 20.008L113.611 33.064V22.792C113.611 22.2 113.555 21.744 113.443 21.424C113.347 21.104 113.139 20.872 112.819 20.728C112.515 20.584 112.051 20.504 111.427 20.488V20.008C111.715 20.024 112.091 20.04 112.555 20.056C113.035 20.072 113.475 20.08 113.875 20.08C114.291 20.08 114.699 20.072 115.099 20.056C115.515 20.04 115.851 20.024 116.107 20.008Z" fill="white"/>
<path d="M130.87 22.6842C132.338 23.0776 133.532 23.7536 134.451 24.7121C135.386 25.6748 135.987 26.8629 136.254 28.2762C136.541 29.6783 136.446 31.2679 135.97 33.0452C135.506 34.7762 134.784 36.2058 133.802 37.3343C132.836 38.4668 131.7 39.2472 130.392 39.6754C129.085 40.1036 127.712 40.1252 126.275 39.7401C124.807 39.3467 123.605 38.6686 122.671 37.7059C121.752 36.7473 121.151 35.5593 120.868 34.1418C120.6 32.7284 120.703 31.1409 121.175 29.379C121.639 27.6481 122.361 26.2184 123.343 25.09C124.324 23.9615 125.461 23.1812 126.753 22.7488C128.06 22.3206 129.433 22.299 130.87 22.6842ZM130.666 23.0766C129.661 22.8074 128.695 22.9212 127.766 23.4179C126.838 23.9146 126.002 24.7175 125.258 25.8266C124.529 26.9399 123.949 28.3001 123.518 29.9074C123.079 31.5457 122.92 33.0353 123.041 34.3763C123.182 35.706 123.549 36.8067 124.144 37.6783C124.758 38.5386 125.537 39.095 126.48 39.3476C127.484 39.6168 128.451 39.503 129.379 39.0063C130.307 38.5097 131.136 37.7047 131.865 36.5914C132.613 35.4668 133.201 34.1086 133.627 32.5168C134.07 30.8631 134.221 29.3714 134.081 28.0417C133.956 26.7162 133.594 25.6253 132.995 24.7691C132.4 23.8975 131.624 23.3333 130.666 23.0766Z" fill="white"/>
<path d="M170.464 45.5493C171.539 46.6241 172.235 47.8064 172.551 49.0962C172.879 50.3972 172.806 51.7266 172.331 53.0842C171.878 54.4419 171.001 55.7713 169.7 57.0723C168.433 58.3395 167.093 59.2163 165.678 59.7028C164.275 60.2006 162.901 60.3081 161.554 60.0252C160.208 59.7424 159.009 59.0749 157.957 58.0227C156.882 56.9479 156.18 55.7599 155.852 54.4589C155.536 53.1691 155.609 51.8397 156.073 50.4708C156.548 49.1131 157.431 47.7894 158.72 46.4997C159.988 45.2325 161.328 44.3557 162.742 43.8692C164.157 43.3827 165.531 43.2753 166.866 43.5468C168.213 43.8296 169.412 44.4971 170.464 45.5493ZM170.091 45.7869C169.355 45.0515 168.461 44.6668 167.409 44.6329C166.357 44.599 165.231 44.8762 164.032 45.4645C162.844 46.0641 161.662 46.9522 160.485 48.1288C159.286 49.3281 158.404 50.5387 157.838 51.7605C157.295 52.9824 157.063 54.1195 157.142 55.1716C157.244 56.2238 157.64 57.095 158.33 57.7851C159.065 58.5205 159.959 58.9052 161.011 58.9391C162.064 58.973 163.184 58.6902 164.372 58.0906C165.582 57.4909 166.77 56.6085 167.935 55.4432C169.146 54.2326 170.023 53.0164 170.566 51.7945C171.12 50.5839 171.352 49.4582 171.262 48.4173C171.182 47.3652 170.792 46.4884 170.091 45.7869Z" fill="white"/>
<path d="M188.257 71.0251L187.841 71.2651C187.555 70.802 187.278 70.4818 187.009 70.3043C186.749 70.1408 186.456 70.0974 186.131 70.1743C185.806 70.2512 185.387 70.4376 184.874 70.7336L172.466 77.8976C172.418 77.8145 172.37 77.7313 172.322 77.6482C172.282 77.5789 172.238 77.5027 172.19 77.4195L180.639 60.902L169.664 67.238C169.166 67.526 168.795 67.7956 168.552 68.0467C168.331 68.3037 168.234 68.5998 168.261 68.9351C168.31 69.2762 168.477 69.725 168.761 70.2814L168.345 70.5214C168.229 70.256 168.055 69.9224 167.823 69.5205C167.605 69.1107 167.392 68.7256 167.184 68.3654C166.984 68.019 166.773 67.6696 166.551 67.3174C166.351 66.971 166.169 66.688 166.005 66.4684L166.421 66.2284C166.721 66.6835 166.994 66.9969 167.241 67.1684C167.51 67.3458 167.807 67.3961 168.132 67.3193C168.471 67.2344 168.89 67.048 169.388 66.76L179.49 60.928C180.002 60.632 180.353 60.3744 180.54 60.1553C180.742 59.9281 180.812 59.6658 180.751 59.3684C180.712 59.0769 180.563 58.6915 180.305 58.2124L180.721 57.9724C180.843 58.216 180.997 58.515 181.183 58.8694C181.378 59.2376 181.575 59.595 181.775 59.9414C181.951 60.2462 182.126 60.5332 182.299 60.8023C182.473 61.0715 182.631 61.3129 182.773 61.5266L175.702 75.3915L184.598 70.2555C185.111 69.9595 185.478 69.683 185.699 69.4261C185.928 69.1829 186.025 68.8868 185.989 68.5377C185.962 68.2024 185.799 67.7605 185.501 67.2121L185.917 66.9721C186.047 67.2296 186.221 67.5632 186.439 67.973C186.666 68.3967 186.879 68.7818 187.079 69.1282C187.287 69.4884 187.498 69.8378 187.711 70.1762C187.933 70.5285 188.115 70.8114 188.257 71.0251Z" fill="white"/>
<path d="M194.591 91.1872C194.034 91.2703 193.496 91.3647 192.977 91.4705C192.463 91.5917 192.075 91.6875 191.812 91.7579C191.534 91.8324 191.265 91.9126 191.007 91.9985C190.764 92.0802 190.559 92.1516 190.393 92.2126L190.25 91.6794C191.137 91.3423 191.821 91.0184 192.301 90.7076C192.796 90.3926 193.096 89.9975 193.201 89.5223C193.325 89.0584 193.277 88.4168 193.058 87.5977L192.542 85.6736C192.401 85.1481 192.247 84.7587 192.08 84.5054C191.932 84.2634 191.707 84.1333 191.404 84.1151C191.116 84.0927 190.687 84.1582 190.115 84.3114L178.617 87.3924C178.06 87.5415 177.655 87.6996 177.402 87.8669C177.149 88.0342 177.011 88.2616 176.988 88.5492C176.986 88.8481 177.055 89.2603 177.196 89.7857L177.649 91.478C177.91 92.4517 178.238 93.1506 178.633 93.5747C179.033 94.0143 179.555 94.2636 180.2 94.3227C180.865 94.393 181.722 94.3456 182.771 94.1804L182.914 94.7136C182.484 94.7791 181.922 94.905 181.226 95.0913C180.932 95.17 180.509 95.2916 179.957 95.4561C179.425 95.632 178.873 95.8295 178.302 96.0487C178.122 95.2522 177.899 94.3594 177.634 93.3703C177.385 92.3771 177.156 91.4941 176.949 90.7213C176.825 90.2577 176.659 89.6395 176.452 88.8667C176.249 88.1095 176.024 87.3002 175.777 86.4388C175.545 85.5734 175.312 84.7661 175.078 84.0171L175.542 83.8929C175.714 84.4101 175.881 84.7876 176.044 85.0255C176.212 85.2788 176.447 85.4146 176.75 85.4328C177.053 85.451 177.482 85.3855 178.039 85.2364L189.537 82.1555C190.109 82.0022 190.514 81.8441 190.752 81.6809C191.005 81.5137 191.141 81.2785 191.159 80.9755C191.197 80.6838 191.153 80.2731 191.028 79.7435L191.491 79.6193C191.679 80.3807 191.881 81.1962 192.097 82.0658C192.314 82.9354 192.523 83.7489 192.726 84.5062C192.933 85.2789 193.099 85.8971 193.223 86.3607C193.414 87.0717 193.629 87.8753 193.869 88.7717C194.129 89.6794 194.37 90.4846 194.591 91.1872ZM185.594 89.3242C185.594 89.3242 185.517 89.3449 185.362 89.3864C185.208 89.4278 185.131 89.4485 185.131 89.4485L183.994 85.2061C183.994 85.2061 184.071 85.1854 184.226 85.144C184.38 85.1026 184.458 85.0819 184.458 85.0819L185.594 89.3242ZM188.834 89.1766C187.937 89.3508 187.256 89.5 186.793 89.6243C186.333 89.764 185.91 89.8856 185.524 89.9891C185.138 90.0926 184.715 90.2142 184.255 90.3539C183.796 90.4936 183.134 90.7124 182.269 91.0102L182.126 90.477C182.604 90.2827 183.063 90.0771 183.502 89.8601C183.96 89.6545 184.297 89.3655 184.512 88.9931C184.746 88.6321 184.772 88.1116 184.59 87.4316L185.054 87.3074C185.236 87.9874 185.54 88.4111 185.966 88.5786C186.396 88.7616 186.861 88.8275 187.361 88.7764C187.86 88.7253 188.304 88.681 188.692 88.6434L188.834 89.1766Z" fill="white"/>
<path d="M192.072 134.214L191.608 134.09C191.734 133.56 191.779 133.142 191.746 132.835C191.724 132.547 191.586 132.32 191.332 132.153C191.094 131.989 190.69 131.831 190.118 131.678L178.619 128.597C178.063 128.448 177.633 128.382 177.33 128.401C177.027 128.419 176.794 128.547 176.631 128.785C176.464 129.038 176.294 129.423 176.123 129.941L175.659 129.816C175.785 129.469 175.921 129.025 176.066 128.484C176.222 127.963 176.372 127.432 176.517 126.891C176.679 126.288 176.822 125.722 176.948 125.192C177.088 124.667 177.187 124.238 177.243 123.905L177.707 124.029C177.597 124.563 177.553 124.974 177.575 125.261C177.593 125.564 177.729 125.799 177.983 125.967C178.236 126.134 178.641 126.292 179.197 126.441L190.695 129.522C191.267 129.675 191.697 129.741 191.985 129.718C192.288 129.7 192.523 129.564 192.69 129.311C192.869 129.077 193.036 128.7 193.192 128.178L193.656 128.303C193.553 128.623 193.424 129.044 193.268 129.565C193.112 130.087 192.953 130.649 192.791 131.251C192.646 131.792 192.511 132.328 192.386 132.857C192.256 133.402 192.152 133.855 192.072 134.214Z" fill="white"/>
<path d="M184.35 152.269C183.95 152.962 183.563 153.441 183.189 153.705C182.828 153.977 182.471 154.196 182.117 154.361C181.924 154.471 181.772 154.559 181.66 154.624C181.555 154.711 181.474 154.803 181.418 154.9C181.29 155.122 181.507 155.45 182.069 155.885L181.793 156.363C181.565 156.213 181.293 156.029 180.976 155.809C180.666 155.611 180.244 155.349 179.712 155.023C179.185 154.719 178.486 154.315 177.613 153.811L177.889 153.333C178.578 153.676 179.299 153.898 180.053 154.001C180.806 154.103 181.517 154.024 182.185 153.763C182.845 153.516 183.399 153.005 183.847 152.229C184.271 151.494 184.402 150.756 184.238 150.016C184.067 149.288 183.621 148.717 182.9 148.301C182.277 147.941 181.658 147.796 181.045 147.867C180.445 147.946 179.82 148.148 179.169 148.475C178.525 148.823 177.829 149.197 177.081 149.597C176.221 150.061 175.41 150.443 174.646 150.741C173.889 151.061 173.155 151.228 172.444 151.243C171.726 151.272 170.992 151.07 170.244 150.638C169.357 150.126 168.739 149.501 168.389 148.763C168.039 148.025 167.91 147.24 168.003 146.407C168.097 145.574 168.375 144.755 168.839 143.952C169.263 143.217 169.682 142.683 170.096 142.35C170.511 142.016 170.896 141.749 171.252 141.548C171.622 141.355 171.855 141.176 171.951 141.009C172.079 140.788 171.862 140.459 171.301 140.024L171.577 139.546C171.851 139.742 172.183 139.952 172.571 140.176C172.965 140.421 173.48 140.728 174.118 141.096C174.747 141.478 175.547 141.949 176.517 142.509L176.241 142.987C175.377 142.563 174.513 142.267 173.649 142.101C172.776 141.948 171.966 142.007 171.219 142.277C170.477 142.57 169.851 143.159 169.339 144.046C168.947 144.725 168.805 145.466 168.915 146.268C169.03 147.092 169.573 147.784 170.543 148.344C171.388 148.832 172.26 148.938 173.158 148.662C174.057 148.386 175.077 147.932 176.219 147.298C176.996 146.878 177.757 146.505 178.501 146.177C179.245 145.848 179.987 145.667 180.727 145.633C181.473 145.62 182.234 145.838 183.01 146.286C183.828 146.758 184.396 147.326 184.715 147.99C185.039 148.677 185.154 149.389 185.059 150.129C184.978 150.877 184.742 151.591 184.35 152.269Z" fill="white"/>
<path d="M151.888 184.404L139.269 174.258C138.757 173.852 138.318 173.634 137.95 173.606C137.591 173.592 137.297 173.642 137.067 173.756L136.827 173.34C137.12 173.208 137.467 173.026 137.869 172.794C138.279 172.576 138.685 172.351 139.087 172.119C139.627 171.807 140.129 171.508 140.592 171.222C141.063 170.95 141.436 170.716 141.711 170.52L141.951 170.936C141.261 171.372 140.878 171.75 140.804 172.069C140.738 172.403 141.048 172.843 141.733 173.39L151.563 181.488L151.386 181.95L149.579 170.468C149.438 169.551 149.236 168.882 148.975 168.461C148.721 168.053 148.389 167.847 147.981 167.843C147.572 167.839 147.072 167.998 146.482 168.32L146.242 167.904C146.646 167.708 147.063 167.486 147.493 167.238C147.916 167.012 148.308 166.795 148.669 166.587C149.015 166.387 149.309 166.208 149.55 166.05C149.786 165.914 150 165.772 150.191 165.624L150.431 166.04C150.194 166.269 150.002 166.593 149.855 167.01C149.716 167.441 149.709 168.037 149.833 168.796L152.221 184.212C152.166 184.244 152.11 184.276 152.055 184.308C151.999 184.34 151.944 184.372 151.888 184.404ZM144.253 177.034L144.013 176.619L150.207 173.043L150.239 173.578L144.253 177.034Z" fill="white"/>
<path d="M136.539 191.449C136.21 191.52 135.781 191.619 135.252 191.744C134.722 191.87 134.202 192.001 133.692 192.137C132.966 192.332 132.272 192.526 131.612 192.719C130.952 192.913 130.482 193.047 130.204 193.122C128.581 193.556 127.269 193.544 126.268 193.083C125.267 192.622 124.623 191.859 124.337 190.793C124.192 190.252 124.165 189.687 124.257 189.1C124.336 188.532 124.581 187.961 124.99 187.388C125.389 186.834 125.985 186.309 126.78 185.815L126.768 185.768C125.505 185.941 124.476 185.902 123.68 185.651C122.873 185.421 122.254 185.056 121.822 184.559C121.391 184.062 121.09 183.496 120.921 182.863C120.569 181.549 120.773 180.335 121.535 179.22C122.285 178.124 123.533 177.343 125.279 176.875C125.619 176.783 126.131 176.655 126.815 176.488C127.504 176.337 128.327 176.132 129.285 175.876C129.826 175.731 130.357 175.58 130.879 175.424C131.404 175.283 131.825 175.154 132.141 175.036L132.265 175.5C131.748 175.671 131.371 175.839 131.133 176.002C130.879 176.169 130.744 176.404 130.725 176.707C130.707 177.01 130.773 177.44 130.922 177.996L134.003 189.495C134.156 190.067 134.314 190.471 134.477 190.709C134.645 190.963 134.88 191.098 135.183 191.117C135.475 191.154 135.885 191.111 136.415 190.985L136.539 191.449ZM130.666 192.526C131.377 192.335 131.805 192.08 131.951 191.759C132.097 191.438 132.062 190.876 131.847 190.072L128.766 178.574C128.551 177.77 128.302 177.274 128.019 177.085C127.725 176.915 127.223 176.925 126.512 177.116C124.997 177.522 123.993 178.163 123.499 179.041C122.994 179.938 122.916 181.036 123.264 182.334C123.582 183.524 124.153 184.357 124.976 184.832C125.784 185.311 126.922 185.354 128.39 184.961L130.778 184.321C130.778 184.321 130.794 184.383 130.828 184.507C130.865 184.646 130.883 184.715 130.883 184.715L128.89 185.249C127.978 185.494 127.32 185.852 126.917 186.325C126.518 186.813 126.302 187.367 126.27 187.989C126.241 188.626 126.316 189.277 126.495 189.941C126.801 191.085 127.286 191.874 127.949 192.31C128.601 192.764 129.506 192.836 130.666 192.526Z" fill="white"/>
<path d="M107.991 196.328C106.471 196.328 105.143 195.984 104.007 195.296C102.855 194.608 101.967 193.616 101.343 192.32C100.703 191.04 100.383 189.48 100.383 187.64C100.383 185.848 100.711 184.28 101.367 182.936C102.007 181.592 102.903 180.544 104.055 179.792C105.207 179.04 106.527 178.664 108.015 178.664C109.535 178.664 110.871 179.008 112.023 179.696C113.159 180.384 114.047 181.376 114.687 182.672C115.311 183.968 115.623 185.528 115.623 187.352C115.623 189.144 115.295 190.712 114.639 192.056C113.983 193.4 113.087 194.448 111.951 195.2C110.799 195.952 109.479 196.328 107.991 196.328ZM108.087 195.896C109.127 195.896 110.031 195.536 110.799 194.816C111.567 194.096 112.167 193.104 112.599 191.84C113.015 190.576 113.223 189.112 113.223 187.448C113.223 185.752 112.991 184.272 112.527 183.008C112.047 181.76 111.407 180.792 110.607 180.104C109.791 179.432 108.895 179.096 107.919 179.096C106.879 179.096 105.975 179.456 105.207 180.176C104.439 180.896 103.847 181.888 103.431 183.152C102.999 184.432 102.783 185.896 102.783 187.544C102.783 189.256 103.023 190.736 103.503 191.984C103.967 193.232 104.599 194.192 105.399 194.864C106.199 195.552 107.095 195.896 108.087 195.896Z" fill="white"/>
<path d="M77.76 190.993L77.8842 190.53C78.1944 190.546 78.5588 190.454 78.9775 190.251C79.3808 190.044 79.8069 189.629 80.256 189.003L89.4681 176.415C89.499 176.423 89.5299 176.431 89.5608 176.44C89.5917 176.448 89.6226 176.456 89.6536 176.464C89.6845 176.473 89.7154 176.481 89.7463 176.489C89.7772 176.498 89.8081 176.506 89.839 176.514L91.5883 192.611C91.6628 193.261 91.822 193.718 92.066 193.982C92.3058 194.261 92.5472 194.442 92.7904 194.524L92.6661 194.987C92.3612 194.889 91.9867 194.772 91.5426 194.637C91.0831 194.497 90.637 194.369 90.2043 194.253C89.6015 194.092 89.0354 193.948 88.5058 193.823C87.9762 193.698 87.547 193.599 87.2183 193.528L87.3425 193.064C88.139 193.244 88.6786 193.24 88.9612 193.05C89.2242 192.872 89.3145 192.35 89.2321 191.483L87.9825 178.899L88.459 178.604L81.6177 188.002C81.0695 188.749 80.741 189.357 80.6322 189.825C80.5193 190.308 80.6059 190.696 80.8921 190.988C81.1783 191.28 81.6439 191.52 82.2888 191.71L82.1646 192.173C81.7205 192.038 81.2688 191.9 80.8093 191.761C80.3498 191.621 79.9191 191.497 79.5173 191.39C79.1154 191.282 78.7811 191.201 78.5142 191.146C78.2473 191.091 77.9959 191.04 77.76 190.993Z" fill="white"/>
<path d="M58.6593 181.117C58.9947 180.665 59.3083 180.217 59.6 179.776C59.8778 179.327 60.0848 178.984 60.2208 178.749C60.3648 178.499 60.4978 178.253 60.62 178.009C60.7341 177.78 60.8283 177.585 60.9024 177.424L61.3805 177.7C60.9916 178.566 60.7374 179.278 60.6178 179.837C60.4902 180.41 60.5575 180.902 60.8196 181.312C61.0599 181.728 61.5472 182.147 62.2816 182.571L64.0067 183.567C64.4778 183.839 64.8621 184.006 65.1595 184.067C65.4351 184.133 65.6864 184.066 65.9136 183.865C66.1327 183.677 66.3903 183.327 66.6863 182.814L72.6383 172.505C72.9263 172.006 73.1007 171.608 73.1616 171.311C73.2224 171.013 73.1591 170.755 72.9715 170.536C72.7621 170.323 72.4218 170.08 71.9507 169.808L70.4335 168.932C69.5605 168.428 68.8343 168.166 68.2549 168.145C67.6617 168.117 67.116 168.31 66.618 168.725C66.0982 169.145 65.5258 169.784 64.9008 170.643L64.4227 170.367C64.6803 170.017 64.9891 169.53 65.3491 168.906C65.5011 168.643 65.7142 168.258 65.9883 167.751C66.2406 167.25 66.491 166.721 66.7396 166.162C67.4303 166.598 68.219 167.072 69.1058 167.584C69.9846 168.109 70.7704 168.572 71.4633 168.972C71.879 169.212 72.4332 169.532 73.126 169.932C73.805 170.324 74.5365 170.737 75.3204 171.172C76.0964 171.62 76.8318 172.026 77.5268 172.39L77.2868 172.806C76.7997 172.561 76.4143 172.413 76.1308 172.36C75.8334 172.299 75.5711 172.369 75.344 172.571C75.1168 172.772 74.8593 173.122 74.5713 173.621L68.6193 183.93C68.3233 184.443 68.1488 184.841 68.096 185.125C68.0351 185.422 68.1054 185.684 68.3068 185.912C68.4863 186.145 68.8077 186.404 69.2708 186.69L69.0308 187.105C68.3598 186.7 67.6404 186.266 66.8724 185.804C66.1045 185.342 65.381 184.915 64.702 184.523C64.0092 184.123 63.455 183.803 63.0393 183.563C62.4019 183.195 61.6813 182.779 60.8777 182.315C60.0521 181.857 59.3127 181.458 58.6593 181.117ZM66.3382 176.073C66.3382 176.073 66.3782 176.004 66.4582 175.865C66.5382 175.727 66.5782 175.657 66.5782 175.657L70.3818 177.853C70.3818 177.853 70.3418 177.923 70.2618 178.061C70.1818 178.2 70.1418 178.269 70.1418 178.269L66.3382 176.073ZM64.1515 178.469C64.6629 177.711 65.0386 177.124 65.2786 176.708C65.5048 176.285 65.7178 175.9 65.9178 175.553C66.1178 175.207 66.3309 174.822 66.5571 174.398C66.7832 173.974 67.0966 173.352 67.4971 172.53L67.9752 172.806C67.7746 173.281 67.5959 173.751 67.439 174.215C67.2603 174.684 67.2266 175.126 67.3379 175.542C67.4273 175.963 67.7768 176.349 68.3865 176.701L68.1465 177.117C67.5368 176.765 67.0222 176.681 66.6026 176.863C66.1692 177.038 65.7939 177.32 65.4766 177.71C65.1593 178.099 64.877 178.444 64.6295 178.745L64.1515 178.469Z" fill="white"/>
<path d="M28.1693 145.713C28.7279 145.464 29.2645 145.21 29.7794 144.95C30.2723 144.683 30.6505 144.474 30.9137 144.322C31.2463 144.13 31.5541 143.943 31.837 143.762C32.12 143.58 32.3684 143.418 32.5821 143.276L32.8581 143.754C31.9441 144.411 31.258 144.983 30.7998 145.469C30.3277 145.963 30.0869 146.49 30.0775 147.05C30.0681 147.61 30.3154 148.326 30.8194 149.199L31.4674 150.321L43.2938 143.493C43.8481 143.173 44.2357 142.885 44.4569 142.628C44.67 142.357 44.7371 142.041 44.6581 141.68C44.5791 141.319 44.3854 140.84 44.0771 140.242L44.4928 140.002C44.6731 140.378 44.9232 140.844 45.2432 141.398C45.5494 141.96 45.8665 142.525 46.1945 143.093C46.5545 143.717 46.9014 144.302 47.2352 144.848C47.5472 145.388 47.8131 145.817 48.0328 146.134L47.6171 146.374C47.2534 145.808 46.9351 145.4 46.6621 145.151C46.3891 144.902 46.086 144.81 45.7529 144.873C45.4117 144.922 44.9641 145.106 44.4098 145.426L32.5834 152.254L33.2314 153.377C33.7274 154.236 34.2241 154.808 34.7215 155.094C35.2109 155.365 35.7877 155.42 36.4518 155.259C37.102 155.105 37.9401 154.796 38.9661 154.333L39.2421 154.812C39.0044 154.912 38.74 155.046 38.449 155.214C38.1501 155.368 37.8343 155.541 37.5017 155.733C37.2385 155.885 36.8723 156.115 36.4034 156.423C35.9125 156.725 35.4199 157.055 34.9253 157.415C34.6032 156.825 34.253 156.186 33.8749 155.499C33.4887 154.798 33.0957 154.102 32.6957 153.409C32.2957 152.716 31.9317 152.086 31.6037 151.517C31.2757 150.949 30.9157 150.326 30.5237 149.647C30.1237 148.954 29.7167 148.265 29.3029 147.58C28.889 146.896 28.5112 146.273 28.1693 145.713Z" fill="white"/>
<path d="M38.7831 124.002L38.3195 124.126C38.1478 123.609 37.9803 123.232 37.8172 122.994C37.6499 122.74 37.4148 122.605 37.1118 122.586C36.8087 122.568 36.379 122.634 35.8226 122.783L24.3243 125.864C23.7524 126.017 23.3476 126.175 23.1097 126.338C22.8564 126.505 22.7206 126.741 22.7024 127.044C22.6646 127.335 22.7084 127.746 22.8337 128.276L22.3701 128.4C22.2903 128.04 22.1857 127.588 22.0562 127.043C21.9267 126.498 21.7916 125.963 21.6508 125.437C21.4893 124.834 21.3304 124.272 21.1741 123.751C21.0179 123.23 20.8885 122.809 20.7861 122.488L21.2498 122.364C21.406 122.885 21.5755 123.271 21.7582 123.52C21.9214 123.758 22.1544 123.886 22.4575 123.904C22.745 123.926 23.1748 123.861 23.7466 123.708L35.245 120.627C35.8013 120.478 36.2062 120.319 36.4595 120.152C36.7129 119.985 36.8507 119.757 36.873 119.47C36.8912 119.167 36.8454 118.748 36.7355 118.215L37.1991 118.091C37.2552 118.423 37.3536 118.852 37.4944 119.378C37.6198 119.908 37.7632 120.474 37.9247 121.076C38.0655 121.602 38.2161 122.133 38.3765 122.67C38.5214 123.211 38.657 123.655 38.7831 124.002ZM41.3796 133.692L40.9159 133.816C40.7442 133.299 40.5768 132.922 40.4137 132.684C40.2464 132.43 40.0113 132.295 39.7082 132.276C39.4052 132.258 38.9755 132.324 38.4191 132.473L26.9207 135.554C26.3489 135.707 25.9441 135.865 25.7062 136.028C25.4528 136.196 25.3171 136.431 25.2989 136.734C25.2611 137.026 25.3049 137.436 25.4302 137.966L24.9666 138.09C24.8951 137.761 24.7966 137.332 24.6713 136.803C24.5459 136.273 24.4025 135.707 24.241 135.104C24.0961 134.563 23.9455 134.032 23.7892 133.511C23.6288 132.974 23.4933 132.53 23.3826 132.179L23.8462 132.054C24.0025 132.576 24.172 132.961 24.3547 133.21C24.5178 133.448 24.7509 133.576 25.0539 133.594C25.3415 133.617 25.7712 133.551 26.3431 133.398L37.8414 130.317C38.3978 130.168 38.8027 130.01 39.056 129.842C39.3093 129.675 39.4472 129.448 39.4695 129.16C39.4877 128.857 39.4419 128.439 39.332 127.905L39.7956 127.781C39.8599 128.144 39.9646 128.597 40.1095 129.138C40.2349 129.667 40.37 130.203 40.5149 130.743C40.6764 131.346 40.8353 131.908 40.9916 132.43C41.1324 132.955 41.2617 133.376 41.3796 133.692ZM32.4951 132.619L32.0315 132.743L29.5779 123.586L30.0415 123.462L32.4951 132.619Z" fill="white"/>
<path d="M20.008 101.828C20.568 101.892 21.112 101.94 21.64 101.972C22.168 101.988 22.568 101.996 22.84 101.996C23.128 101.996 23.408 101.988 23.68 101.972C23.936 101.956 24.152 101.94 24.328 101.924V102.477C23.384 102.572 22.64 102.708 22.096 102.884C21.536 103.06 21.144 103.364 20.92 103.796C20.68 104.212 20.56 104.844 20.56 105.692V107.684C20.56 108.228 20.608 108.644 20.704 108.932C20.784 109.204 20.968 109.388 21.256 109.484C21.528 109.58 21.96 109.628 22.552 109.628H34.456C35.032 109.628 35.464 109.58 35.752 109.484C36.04 109.388 36.232 109.204 36.328 108.932C36.408 108.644 36.448 108.228 36.448 107.684V105.932C36.448 104.924 36.312 104.164 36.04 103.652C35.768 103.124 35.328 102.748 34.72 102.524C34.096 102.284 33.256 102.108 32.2 101.996V101.444C32.632 101.492 33.208 101.516 33.928 101.516C34.232 101.516 34.672 101.508 35.248 101.492C35.808 101.46 36.392 101.412 37 101.348C36.968 102.164 36.952 103.084 36.952 104.108C36.936 105.132 36.928 106.044 36.928 106.844C36.928 107.324 36.928 107.964 36.928 108.764C36.928 109.548 36.936 110.388 36.952 111.285C36.952 112.18 36.968 113.02 37 113.804H36.52C36.488 113.26 36.424 112.852 36.328 112.58C36.232 112.292 36.04 112.1 35.752 112.004C35.464 111.908 35.032 111.86 34.456 111.86H22.552C21.96 111.86 21.528 111.908 21.256 112.004C20.968 112.1 20.776 112.292 20.68 112.58C20.568 112.852 20.504 113.26 20.488 113.804H20.008C20.024 113.02 20.04 112.18 20.056 111.285C20.072 110.388 20.08 109.548 20.08 108.764C20.08 107.964 20.08 107.324 20.08 106.844C20.08 106.108 20.08 105.276 20.08 104.348C20.064 103.404 20.04 102.564 20.008 101.828ZM28.216 105.956C28.216 105.956 28.296 105.956 28.456 105.956C28.616 105.956 28.696 105.956 28.696 105.956V110.348C28.696 110.348 28.616 110.348 28.456 110.348C28.296 110.348 28.216 110.348 28.216 110.348V105.956ZM25.048 105.26C25.96 105.324 26.656 105.356 27.136 105.356C27.616 105.34 28.056 105.332 28.456 105.332C28.856 105.332 29.296 105.324 29.776 105.308C30.256 105.292 30.952 105.252 31.864 105.188V105.74C31.352 105.804 30.856 105.884 30.376 105.98C29.88 106.06 29.48 106.252 29.176 106.556C28.856 106.844 28.696 107.34 28.696 108.044H28.216C28.216 107.34 28.032 106.852 27.664 106.58C27.296 106.292 26.864 106.108 26.368 106.028C25.872 105.948 25.432 105.876 25.048 105.812V105.26Z" fill="white"/>
<path d="M32.0834 63.5076L32.4991 63.7476C32.241 64.2267 32.0884 64.619 32.0414 64.9244C31.9885 65.2079 32.0628 65.4633 32.2642 65.6904C32.4518 65.9096 32.8019 66.1671 33.3146 66.4631L43.6237 72.4151C44.1226 72.7031 44.5207 72.8776 44.8181 72.9384C45.1155 72.9993 45.3738 72.9359 45.5929 72.7484C45.8062 72.539 46.0489 72.1987 46.3209 71.7276L47.1969 70.2103C47.7009 69.3373 47.9562 68.6072 47.9627 68.0198C47.9773 67.4185 47.7566 66.8569 47.3004 66.3349C46.8523 65.799 46.1782 65.2066 45.2781 64.5576L45.5541 64.0796C45.9597 64.3691 46.5158 64.7179 47.2225 65.1259C47.4857 65.2779 47.8708 65.491 48.3776 65.7651C48.8786 66.0174 49.4084 66.2679 49.9669 66.5164C49.5312 67.2071 49.0573 67.9959 48.5453 68.8827C48.0195 69.7615 47.5566 70.5473 47.1566 71.2401C46.9166 71.6558 46.5966 72.2101 46.1966 72.9029C45.8046 73.5818 45.3915 74.3133 44.9573 75.0973C44.5093 75.8732 44.1032 76.6087 43.7389 77.3037L43.3232 77.0637C43.5675 76.5765 43.7161 76.1912 43.7689 75.9076C43.8298 75.6102 43.7595 75.3479 43.5581 75.1208C43.3567 74.8937 43.0066 74.6361 42.5077 74.3481L32.1986 68.3961C31.6859 68.1001 31.2878 67.9257 31.0042 67.8728C30.7068 67.8119 30.4445 67.8822 30.2174 68.0836C29.9844 68.2632 29.725 68.5845 29.4391 69.0476L29.0234 68.8077C29.2053 68.5247 29.4391 68.1516 29.725 67.6885C30.0108 67.2254 30.3098 66.7236 30.6218 66.1832C30.9018 65.6982 31.1708 65.2162 31.429 64.7371C31.6951 64.2441 31.9133 63.8343 32.0834 63.5076Z" fill="white"/>
<path d="M45.832 45.5585L60.6473 52.0922C61.2469 52.3524 61.7277 52.4486 62.0898 52.3807C62.4405 52.3015 62.712 52.1771 62.9044 52.0073L63.2438 52.3468C62.9949 52.5504 62.7064 52.8163 62.3783 53.1444C62.0389 53.4612 61.7051 53.7836 61.377 54.1117C60.9358 54.5529 60.5285 54.9715 60.1551 55.3675C59.7705 55.7522 59.4707 56.0746 59.2557 56.3348L58.9163 55.9954C59.4707 55.3958 59.7422 54.9319 59.7309 54.6038C59.7083 54.2644 59.2953 53.9194 58.492 53.5686L46.9011 48.2908L46.952 47.7986L51.6699 58.4222C52.0432 59.2708 52.4109 59.8647 52.7729 60.2041C53.1237 60.5322 53.497 60.6454 53.893 60.5435C54.289 60.4417 54.7302 60.1589 55.2167 59.695L55.5561 60.0344C55.2167 60.3286 54.8716 60.651 54.5209 61.0017C54.1702 61.3298 53.8478 61.641 53.5536 61.9351C53.2708 62.218 53.0332 62.4669 52.8408 62.6818C52.6485 62.8742 52.4788 63.0665 52.3317 63.2588L51.9923 62.9194C52.162 62.6366 52.2638 62.2745 52.2978 61.8333C52.3204 61.3808 52.1733 60.8038 51.8565 60.1023L45.5605 45.8301C45.6057 45.7848 45.651 45.7396 45.6962 45.6943C45.7415 45.649 45.7867 45.6038 45.832 45.5585ZM55.1149 50.7006L55.4543 51.04L50.3971 56.0973L50.2274 55.5881L55.1149 50.7006Z" fill="white"/>
<path d="M73.4476 26.3444L73.6876 26.7601C73.4563 26.9675 73.2574 27.2949 73.0907 27.7421C72.916 28.1756 72.9156 28.767 73.0896 29.5164L76.4333 44.3798C76.4056 44.3958 76.3779 44.4118 76.3502 44.4278C76.3225 44.4438 76.2948 44.4598 76.2671 44.4758C76.2393 44.4918 76.2116 44.5078 76.1839 44.5238C76.1562 44.5398 76.1285 44.5558 76.1008 44.5718L64.1464 34.0423C63.6543 33.6059 63.2494 33.3686 62.9317 33.3303C62.614 33.292 62.3541 33.322 62.1521 33.4201L61.9121 33.0044C62.1696 32.8743 62.4893 32.7081 62.8715 32.506C63.2536 32.3038 63.6178 32.1028 63.9643 31.9028C64.5047 31.5908 65.0064 31.2918 65.4695 31.006C65.9327 30.7201 66.3057 30.4863 66.5887 30.3044L66.8287 30.7201C66.421 30.974 66.1124 31.2075 65.903 31.4208C65.7075 31.6261 65.6569 31.8585 65.7513 32.1181C65.8596 32.3696 66.1529 32.7176 66.6312 33.162L75.2601 40.9557L75.1131 41.3731L72.8767 31.1635C72.6861 30.2574 72.4569 29.6045 72.1892 29.2048C71.9274 28.7833 71.6029 28.5734 71.216 28.5751C70.821 28.5629 70.3285 28.718 69.7385 29.0401L69.4985 28.6244C69.9084 28.4063 70.3251 28.1841 70.7488 27.958C71.1725 27.7318 71.5645 27.5148 71.9248 27.3068C72.285 27.0988 72.5789 26.9198 72.8065 26.77C73.0341 26.6201 73.2478 26.4783 73.4476 26.3444ZM58.9192 34.7324L59.1592 35.1481C58.8149 35.3838 58.5916 35.6051 58.4893 35.8119C58.4009 36.0108 58.4287 36.2349 58.5727 36.4843C58.7226 36.7119 58.9908 37.0005 59.3773 37.35L68.275 45.3211L68.0553 46.1407L65.6012 35.17L66.201 35.4888L69.1795 48.5678C69.1518 48.5838 69.1241 48.5998 69.0964 48.6158C69.0687 48.6318 69.0409 48.6478 69.0132 48.6638C68.9855 48.6798 68.9578 48.6958 68.9301 48.7118C68.9024 48.7278 68.8747 48.7438 68.8469 48.7598L56.8926 38.2303C56.4005 37.7939 55.9678 37.5726 55.5947 37.5663C55.2216 37.56 54.9202 37.614 54.6905 37.7281L54.4505 37.3124C54.7356 37.1663 55.0831 36.9841 55.4929 36.766C55.9166 36.5398 56.3224 36.3148 56.7104 36.0908C57.1677 35.8268 57.5863 35.5758 57.9663 35.338C58.3601 35.0921 58.6777 34.8903 58.9192 34.7324Z" fill="white"/>
</svg>
