<svg width="545" height="545" viewBox="0 0 545 545" fill="none" xmlns="http://www.w3.org/2000/svg">
<g clip-path="url(#clip0_122_10)">
<path d="M157.349 304.567C161.515 304.588 165.557 303.156 168.781 300.518L222.329 257.306C225.674 260.468 230.103 262.229 234.705 262.228C239.092 262.228 243.327 260.639 246.624 257.751L251.967 253.119L254.278 256.037C253.27 258.078 252.859 260.362 253.093 262.626C253.327 264.891 254.197 267.043 255.601 268.834L261.552 276.355C262.67 277.78 264.099 278.93 265.73 279.719C267.361 280.507 269.15 280.912 270.962 280.903C273.675 280.903 276.317 279.977 278.423 278.268L327.121 239.16C332.248 235.008 333.09 227.506 329.017 222.313L323.072 214.792C321.773 213.104 320.035 211.805 318.047 211.038C316.06 210.27 313.9 210.064 311.803 210.442L262.881 148.537C263.79 146.531 264.131 144.314 263.867 142.127C263.603 139.94 262.744 137.868 261.383 136.136L255.439 128.616C254.46 127.381 253.247 126.353 251.87 125.588C250.493 124.824 248.978 124.339 247.413 124.161C245.848 123.983 244.263 124.116 242.749 124.552C241.235 124.988 239.823 125.719 238.592 126.702L189.893 165.811C187.422 167.81 185.837 170.701 185.482 173.859C185.126 177.017 186.028 180.189 187.992 182.687L193.912 190.25C195.275 191.982 197.092 193.3 199.161 194.059C201.229 194.817 203.468 194.986 205.627 194.546L208.906 198.692L202.504 203.86C198.824 206.807 196.427 211.064 195.816 215.739C195.205 220.413 196.426 225.143 199.225 228.938L145.917 271.927C142.157 274.984 139.751 279.399 139.219 284.217C138.688 289.035 140.074 293.868 143.078 297.672C144.777 299.829 146.945 301.571 149.418 302.766C151.891 303.961 154.603 304.577 157.349 304.567ZM270.998 268.888L265.047 261.337L296.334 236.224L313.656 222.313L313.722 222.265L319.601 229.756L270.998 268.888ZM262.948 247.589L257.34 240.502L222.107 195.978C222.07 195.936 222.064 195.882 222.028 195.84C221.992 195.798 221.95 195.786 221.92 195.744L215.861 188.09L254.368 157.171L301.454 216.694L262.948 247.589ZM246.041 136.13L251.955 143.627L251.54 143.964L203.665 182.429C203.581 182.501 203.539 182.609 203.461 182.681L203.353 182.766L197.39 175.209L246.041 136.13ZM210.043 213.222L216.373 208.114L244.507 243.672L238.755 248.66C238.127 249.208 237.396 249.624 236.604 249.883C235.812 250.141 234.976 250.237 234.146 250.165C233.316 250.092 232.509 249.853 231.774 249.461C231.039 249.069 230.391 248.533 229.868 247.884L209.111 222.139C208.579 221.484 208.183 220.731 207.946 219.922C207.708 219.113 207.634 218.265 207.727 217.428C207.907 215.773 208.737 214.257 210.043 213.222ZM153.486 281.271L206.716 238.342L214.592 248.101L161.206 291.174C160.573 291.684 159.846 292.062 159.066 292.288C158.286 292.514 157.469 292.582 156.662 292.489C155.855 292.396 155.075 292.144 154.366 291.747C153.658 291.349 153.036 290.815 152.536 290.175C151.489 288.866 151.001 287.196 151.178 285.529C151.355 283.861 152.188 282.331 153.486 281.271ZM145.117 334.65H283.501C285.096 334.65 286.627 334.016 287.755 332.888C288.883 331.76 289.517 330.229 289.517 328.634C289.517 327.038 288.883 325.508 287.755 324.379C286.627 323.251 285.096 322.617 283.501 322.617H145.117C143.522 322.617 141.991 323.251 140.863 324.379C139.734 325.508 139.101 327.038 139.101 328.634C139.101 330.229 139.734 331.76 140.863 332.888C141.991 334.016 143.522 334.65 145.117 334.65ZM145.117 364.734H253.417C255.013 364.734 256.543 364.1 257.672 362.971C258.8 361.843 259.434 360.313 259.434 358.717C259.434 357.121 258.8 355.591 257.672 354.463C256.543 353.334 255.013 352.7 253.417 352.7H145.117C143.522 352.7 141.991 353.334 140.863 354.463C139.734 355.591 139.101 357.121 139.101 358.717C139.101 360.313 139.734 361.843 140.863 362.971C141.991 364.1 143.522 364.734 145.117 364.734ZM145.117 394.817H235.367C236.963 394.817 238.493 394.183 239.622 393.055C240.75 391.926 241.384 390.396 241.384 388.8C241.384 387.205 240.75 385.674 239.622 384.546C238.493 383.418 236.963 382.784 235.367 382.784H145.117C143.522 382.784 141.991 383.418 140.863 384.546C139.734 385.674 139.101 387.205 139.101 388.8C139.101 390.396 139.734 391.926 140.863 393.055C141.991 394.183 143.522 394.817 145.117 394.817Z" fill="white"/>
<path d="M448.501 225.207C443.92 220.717 437.751 218.218 431.337 218.256C424.923 218.293 418.783 220.863 414.254 225.405L384.676 254.995L367.733 271.95V118.05C367.733 113.263 365.832 108.672 362.447 105.287C359.062 101.902 354.471 100 349.683 100H151.133C149.538 100 148.008 100.634 146.88 101.763L104.763 143.88C103.634 145.008 103 146.538 103 148.133V442.95C103 447.737 104.902 452.328 108.287 455.713C111.672 459.098 116.263 461 121.05 461H349.683C354.471 461 359.062 459.098 362.447 455.713C365.832 452.328 367.733 447.737 367.733 442.95V356.99L427.112 297.611C427.142 297.581 427.184 297.575 427.22 297.545C427.256 297.515 427.256 297.467 427.286 297.437L444.133 280.59C444.169 280.59 444.211 280.554 444.241 280.518C444.271 280.482 444.277 280.446 444.313 280.416L456.816 267.913C459.078 265.681 460.877 263.025 462.111 260.096C463.345 257.168 463.989 254.025 464.007 250.848C464.025 247.67 463.416 244.52 462.215 241.578C461.014 238.636 459.245 235.96 457.009 233.702L448.501 225.207ZM422.948 284.772L410.205 272.035L397.444 259.273L405.951 250.76L431.462 276.27L422.948 284.772ZM312.332 395.376L303.842 386.887L405.945 284.778L414.441 293.273L312.332 395.376ZM271.37 412.764C271.106 412.872 270.814 412.897 270.535 412.836C270.256 412.775 270.002 412.63 269.806 412.421C269.609 412.248 269.466 412.021 269.393 411.768C269.321 411.516 269.322 411.247 269.397 410.995L280.696 380.756L301.472 401.531L271.37 412.764ZM388.93 267.763L397.438 276.288L295.335 378.379L286.845 369.89L388.93 267.763ZM145.117 120.541V136.1C145.117 137.696 144.483 139.226 143.354 140.354C142.226 141.483 140.696 142.117 139.1 142.117H123.541L145.117 120.541ZM355.7 442.95C355.7 444.546 355.066 446.076 353.938 447.204C352.809 448.333 351.279 448.967 349.683 448.967H121.05C119.454 448.967 117.924 448.333 116.796 447.204C115.667 446.076 115.033 444.546 115.033 442.95V154.15H139.1C143.887 154.15 148.478 152.248 151.863 148.863C155.248 145.478 157.15 140.887 157.15 136.1V112.033H349.683C351.279 112.033 352.809 112.667 353.938 113.796C355.066 114.924 355.7 116.454 355.7 118.05V283.99L276.039 363.686C274.141 365.502 272.687 367.732 271.792 370.202L258.068 406.934C257.45 408.847 257.267 410.874 257.532 412.867H145.117C143.521 412.867 141.991 413.501 140.862 414.629C139.734 415.757 139.1 417.288 139.1 418.883C139.1 420.479 139.734 422.009 140.862 423.138C141.991 424.266 143.521 424.9 145.117 424.9H271.467C272.808 424.744 274.138 424.479 275.432 424.094L311.995 410.46C314.432 409.585 316.637 408.162 318.439 406.302L355.7 369.023V442.95ZM448.357 259.375L439.963 267.745L414.447 242.234L422.762 233.913C423.913 232.759 425.28 231.844 426.785 231.219C428.291 230.595 429.904 230.273 431.534 230.273C434.706 230.26 437.754 231.504 440.012 233.732L448.477 242.198C450.736 244.493 451.992 247.591 451.969 250.812C451.947 254.032 450.647 257.112 448.357 259.375Z" fill="white"/>
</g>
<defs>
<clipPath id="clip0_122_10">
<rect width="361" height="361" fill="white" transform="translate(103 100)"/>
</clipPath>
</defs>
</svg>
