<svg width="545" height="545" viewBox="0 0 545 545" fill="none" xmlns="http://www.w3.org/2000/svg">
<path fill-rule="evenodd" clip-rule="evenodd" d="M456.355 417.798C444.049 416.436 431.482 413.811 419.288 411.283C394.984 406.275 369.848 401.073 344.469 404.573C317.749 408.317 294.144 421.443 272.499 444.635C250.864 421.443 227.255 408.317 200.534 404.573C161.91 399.282 125.443 413.727 88.6486 417.798L80.0529 395.239C98.9749 392.711 118.164 386.585 136.795 380.653C161.917 372.68 185.647 365.095 207.851 365.922C232.058 366.748 250.82 377.687 266.883 400.392C269.649 404.271 275.36 404.268 278.124 400.392C294.188 377.688 312.944 366.749 337.152 365.922C359.36 365.095 383.087 372.679 408.212 380.653C426.838 386.584 446.032 392.711 464.95 395.239L456.355 417.798ZM272.5 309.281C276.307 309.281 279.389 312.393 279.389 316.184V377.395C282.977 373.762 286.855 370.428 290.985 367.428C291.009 336.507 291.043 302.328 291.068 284.387C291.088 266.884 298.113 251.57 311.395 240.145L322.266 230.809C323.462 229.739 324.182 228.33 324.303 226.726C324.708 221.395 318.514 218.352 314.487 221.766C313.102 222.933 310.904 224.926 308.371 227.26C286.133 247.583 278.422 253.175 272.51 253.175C266.584 253.175 258.873 247.584 236.635 227.26C234.102 224.927 231.905 222.933 230.518 221.766C229.323 220.745 227.781 220.211 226.186 220.356C220.804 220.765 218.811 227.362 222.744 230.809L233.61 240.145C246.893 251.57 253.923 266.885 253.937 284.387C253.957 302.327 254 336.506 254.025 367.428C258.152 370.427 262.025 373.761 265.606 377.395V316.184C265.606 312.393 268.698 309.281 272.5 309.281ZM187.972 197.945C186.557 197.519 185.043 197.558 183.652 198.056C182.261 198.555 181.067 199.488 180.246 200.717L175.01 208.544L151.794 248.702C149.346 252.993 142.851 252.265 141.522 247.341C141.132 245.883 141.332 244.375 142.071 243.112L175.077 185.936C178.945 179.148 178.63 178.741 184.379 178.741H241.097C242.988 194.395 256.349 206.55 272.5 206.55C288.656 206.55 302.016 194.395 303.912 178.741H353.1C362.717 178.602 365.449 178.189 369.163 184.623L402.934 243.111C404.48 245.784 403.561 249.236 400.872 250.792C398.197 252.299 394.751 251.375 393.209 248.701L365.162 200.132C362.184 195.012 354.469 195.753 352.633 201.493L344.951 225.413C344.424 227.044 344.528 228.814 345.242 230.372L371.389 287.693H355.175C354.268 287.691 353.37 287.869 352.532 288.215C351.695 288.562 350.934 289.07 350.293 289.712C349.653 290.354 349.146 291.116 348.801 291.954C348.457 292.793 348.281 293.691 348.285 294.598V352.357C343.591 352.005 337.916 351.908 333.229 352.308V293.48C333.229 289.687 330.137 286.576 326.334 286.576C322.532 286.576 319.445 289.687 319.445 293.48V354.399C314.345 355.614 309.464 357.267 304.772 359.407C304.796 330.77 304.83 300.821 304.849 284.437C304.864 270.824 310.091 259.447 320.383 250.599L331.254 241.264C344.485 229.856 337.399 207.896 319.843 206.6C314.578 206.211 309.483 207.863 305.491 211.315C297.836 217.885 279.551 235.609 272.498 239.126C265.469 235.615 247.156 217.882 239.51 211.315C226.216 199.898 205.63 210.257 206.951 227.748C207.14 230.337 207.838 232.864 209.004 235.183C210.171 237.502 211.783 239.568 213.748 241.264L224.619 250.599C234.912 259.447 240.138 270.824 240.157 284.437C240.172 300.821 240.206 330.77 240.235 359.407C235.538 357.267 230.657 355.614 225.557 354.399V293.48C225.557 289.687 222.475 286.576 218.668 286.576C214.867 286.576 211.779 289.687 211.779 293.48V352.308C206.065 351.82 198.577 352.109 192.852 352.697V204.558C192.853 201.494 190.874 198.82 187.972 197.945ZM272.5 157.008C262.655 157.008 254.633 165.03 254.633 174.899C254.633 184.769 262.655 192.743 272.5 192.743C282.35 192.743 290.372 184.77 290.372 174.899C290.372 165.03 282.349 157.008 272.5 157.008ZM479.663 385.758C478.984 384.789 478.099 383.981 477.072 383.393C476.045 382.805 474.902 382.45 473.722 382.355C438.162 379.481 398.944 360.231 362.065 354.009V301.453H377.214C384.515 301.453 389.354 293.874 386.559 287.742L358.885 227.116L361.005 220.504L381.269 255.607C386.628 264.882 398.484 268.057 407.761 262.705C417.033 257.357 420.217 245.495 414.869 236.209L381.099 177.721C373.684 164.885 364.476 164.885 354.732 164.934H302.541C298.354 152.343 286.477 143.251 272.5 143.251C258.527 143.251 246.65 152.343 242.463 164.934H184.379C171.193 164.934 167.654 171.158 163.901 177.721L130.135 236.209C121.539 251.102 135.291 269.097 151.951 264.651C156.964 263.289 161.149 260.081 163.736 255.608L179.075 229.062V354.74C143.786 361.399 105.662 379.578 71.2834 382.356C66.018 382.781 62.5699 388.095 64.4571 393.051L77.3652 426.889C78.6347 430.196 81.999 432.286 85.5628 431.945C100.027 430.682 114.506 427.667 128.508 424.799C176.115 414.929 221.072 405.643 267.28 459.463C270.018 462.636 274.991 462.634 277.728 459.463C323.935 405.643 368.897 414.928 416.5 424.799C430.502 427.667 444.981 430.682 459.445 431.945C462.998 432.286 466.378 430.195 467.642 426.889L480.555 393.051C481.008 391.854 481.164 390.565 481.008 389.295C480.853 388.024 480.391 386.81 479.663 385.758ZM315.571 96.9167C325.883 96.9167 334.259 105.328 334.259 115.635C334.259 125.942 325.882 134.305 315.571 134.305C305.264 134.305 296.882 125.942 296.882 115.635C296.881 105.328 305.264 96.9167 315.571 96.9167ZM315.571 148.111C297.665 148.111 283.099 133.525 283.099 115.634C283.099 97.6941 297.665 83.1572 315.571 83.1572C333.477 83.1572 348.043 97.6941 348.043 115.634C348.043 133.526 333.477 148.111 315.571 148.111ZM221.908 96.9167C232.215 96.9167 240.597 105.328 240.597 115.635C240.597 125.942 232.215 134.305 221.908 134.305C211.595 134.305 203.219 125.942 203.219 115.635C203.218 105.328 211.595 96.9167 221.908 96.9167ZM221.908 148.111C204.001 148.111 189.436 133.525 189.436 115.634C189.436 97.6941 204.001 83.1572 221.908 83.1572C239.814 83.1572 254.375 97.6941 254.375 115.634C254.375 133.526 239.814 148.111 221.908 148.111Z" fill="white"/>
</svg>
