<svg width="545" height="545" viewBox="0 0 545 545" fill="none" xmlns="http://www.w3.org/2000/svg">
<path fill-rule="evenodd" clip-rule="evenodd" d="M433.623 109.922H276.22C266.415 90.9825 246.645 78 223.887 78C191.407 78 164.984 104.423 164.984 136.903C164.984 169.382 191.407 195.806 223.887 195.806C226.996 195.806 230.05 195.559 233.03 195.092V228.314H120.172C104.087 228.314 91 241.401 91 257.486V373.624C91 389.71 104.087 402.797 120.172 402.797H133.781V444C133.782 445.197 134.14 446.366 134.81 447.358C135.48 448.35 136.431 449.119 137.541 449.566C138.652 450.013 139.87 450.117 141.04 449.866C142.211 449.615 143.279 449.02 144.108 448.156L187.683 402.797H264.973C270.492 429.702 294.354 450 322.867 450C355.453 450 381.964 423.489 381.964 390.903C381.964 358.317 355.453 331.806 322.867 331.806C321.589 331.806 320.324 331.861 319.067 331.941V285.836H365.543L409.515 331.61C410.344 332.473 411.413 333.069 412.583 333.32C413.753 333.571 414.972 333.466 416.082 333.019C417.193 332.573 418.144 331.804 418.814 330.812C419.484 329.82 419.842 328.651 419.842 327.454V285.836H433.623C449.822 285.836 463 272.657 463 256.459V139.298C463 123.101 449.822 109.922 433.623 109.922ZM176.984 136.903C176.984 111.041 198.024 90 223.887 90C249.749 90 270.789 111.041 270.789 136.903C270.789 162.765 249.749 183.806 223.887 183.806C198.024 183.806 176.984 162.766 176.984 136.903ZM369.964 390.903C369.964 416.873 348.837 438 322.867 438C296.898 438 275.77 416.873 275.77 390.903C275.77 364.934 296.898 343.806 322.867 343.806C348.837 343.806 369.964 364.934 369.964 390.903ZM263.773 390.797H185.126C184.318 390.797 183.518 390.96 182.775 391.277C182.031 391.593 181.359 392.057 180.799 392.64L145.781 429.093V396.797C145.781 395.205 145.149 393.679 144.024 392.554C142.899 391.429 141.373 390.797 139.781 390.797H120.172C110.703 390.797 103 383.093 103 373.624V257.486C103 248.018 110.703 240.314 120.172 240.314H289.895C299.363 240.314 307.067 248.018 307.067 257.486V333.968C282.164 340.888 263.821 363.73 263.773 390.797ZM451 256.459C451 266.04 443.204 273.836 433.623 273.836H413.842C412.251 273.836 410.725 274.468 409.599 275.593C408.474 276.718 407.842 278.244 407.842 279.836V312.547L372.426 275.679C371.865 275.096 371.193 274.632 370.45 274.316C369.706 273.999 368.906 273.836 368.098 273.836H319.067V257.486C319.067 241.401 305.981 228.314 289.896 228.314H245.031V191.865C267.093 183.349 282.79 161.931 282.79 136.903C282.79 131.727 282.114 126.708 280.854 121.922H433.624C443.205 121.922 451.001 129.718 451.001 139.298V256.459H451ZM413.502 158.874C413.502 160.465 412.87 161.991 411.745 163.117C410.62 164.242 409.094 164.874 407.502 164.874H288.527C286.936 164.874 285.41 164.242 284.285 163.117C283.16 161.991 282.527 160.465 282.527 158.874C282.527 157.283 283.16 155.757 284.285 154.631C285.41 153.506 286.936 152.874 288.527 152.874H407.502C409.094 152.874 410.62 153.506 411.745 154.631C412.87 155.757 413.502 157.283 413.502 158.874ZM413.502 197.865C413.502 199.456 412.87 200.982 411.745 202.108C410.62 203.233 409.094 203.865 407.502 203.865H288.527C286.936 203.865 285.41 203.233 284.285 202.108C283.16 200.982 282.527 199.456 282.527 197.865C282.527 196.274 283.16 194.748 284.285 193.622C285.41 192.497 286.936 191.865 288.527 191.865H407.502C409.094 191.865 410.62 192.497 411.745 193.622C412.87 194.748 413.502 196.274 413.502 197.865ZM413.502 236.858C413.502 238.45 412.87 239.976 411.745 241.101C410.62 242.226 409.094 242.858 407.502 242.858H330.227C328.635 242.858 327.109 242.226 325.984 241.101C324.859 239.976 324.227 238.45 324.227 236.858C324.227 235.267 324.859 233.741 325.984 232.616C327.109 231.49 328.635 230.858 330.227 230.858H407.502C409.094 230.858 410.62 231.49 411.745 232.616C412.87 233.741 413.502 235.267 413.502 236.858ZM287.191 314.475C287.19 314.44 287.184 314.407 287.182 314.372C287.172 314.199 287.154 314.026 287.129 313.854C287.121 313.798 287.108 313.745 287.098 313.689C287.072 313.54 287.041 313.393 287.004 313.246C286.986 313.179 286.965 313.113 286.945 313.046C286.907 312.916 286.864 312.786 286.817 312.658C286.709 312.378 286.583 312.106 286.439 311.843C286.412 311.792 286.389 311.741 286.359 311.69L264.618 275.011C264.605 274.99 264.59 274.972 264.577 274.951C264.33 274.544 264.035 274.168 263.698 273.832C263.652 273.786 263.603 273.743 263.556 273.698C263.433 273.582 263.304 273.472 263.171 273.367C263.112 273.32 263.053 273.273 262.992 273.229C262.835 273.114 262.673 273.007 262.505 272.908C262.473 272.89 262.443 272.868 262.412 272.85C262.217 272.741 262.016 272.643 261.81 272.557C261.74 272.527 261.669 272.501 261.597 272.474C261.444 272.415 261.29 272.363 261.134 272.317C261.063 272.297 260.993 272.276 260.921 272.258C260.698 272.2 260.47 272.155 260.241 272.123C260.003 272.093 259.763 272.077 259.523 272.076C259.501 272.076 259.479 272.071 259.457 272.071C259.417 272.071 259.379 272.078 259.339 272.079C259.159 272.083 258.978 272.095 258.797 272.115C258.727 272.123 258.656 272.13 258.587 272.14C258.394 272.169 258.203 272.207 258.013 272.254C257.971 272.264 257.928 272.27 257.886 272.282L257.855 272.289C247.544 275.146 244.02 273.809 239.559 272.119C235.084 270.424 229.663 268.375 219.246 269.689C216.602 264.514 211.231 260.957 205.033 260.957C198.835 260.957 193.464 264.515 190.82 269.689C180.404 268.376 174.981 270.424 170.508 272.12C166.047 273.811 162.523 275.147 152.21 272.29L152.179 272.283C152.136 272.272 152.092 272.265 152.049 272.254C151.862 272.207 151.674 272.17 151.484 272.141C151.409 272.13 151.334 272.123 151.259 272.115C151.089 272.096 150.918 272.085 150.747 272.081C150.7 272.08 150.655 272.072 150.608 272.072C150.582 272.072 150.556 272.077 150.53 272.077C150.302 272.079 150.075 272.094 149.849 272.122C149.805 272.128 149.762 272.138 149.719 272.145C149.534 272.173 149.35 272.209 149.168 272.255C149.077 272.278 148.985 272.304 148.895 272.332C148.766 272.371 148.639 272.414 148.514 272.461C148.419 272.496 148.325 272.531 148.232 272.57C147.969 272.686 147.714 272.82 147.469 272.972C147.342 273.05 147.218 273.129 147.096 273.217C147.019 273.273 146.943 273.332 146.869 273.392C146.755 273.483 146.645 273.578 146.538 273.677C146.478 273.733 146.415 273.787 146.357 273.847C146.195 274.007 146.043 274.177 145.901 274.355C145.888 274.371 145.877 274.389 145.865 274.405C145.732 274.579 145.609 274.759 145.495 274.945C145.481 274.968 145.463 274.989 145.448 275.012L123.708 311.691C123.678 311.741 123.655 311.793 123.627 311.843C123.522 312.033 123.427 312.229 123.343 312.429C123.31 312.505 123.279 312.582 123.25 312.659C123.203 312.787 123.16 312.916 123.122 313.047C123.102 313.114 123.081 313.18 123.063 313.247C123.026 313.393 122.994 313.541 122.969 313.69C122.958 313.744 122.946 313.799 122.938 313.855C122.912 314.027 122.895 314.2 122.885 314.373C122.883 314.408 122.877 314.441 122.876 314.476C122.857 314.895 122.882 315.315 122.952 315.729L122.956 315.769C125.276 329.257 136.907 339.049 150.61 339.049C164.315 339.049 175.945 329.257 178.265 315.768L178.27 315.722C178.302 315.534 178.323 315.344 178.336 315.153L178.341 315.11C178.353 314.901 178.354 314.69 178.344 314.479C178.343 314.437 178.336 314.396 178.333 314.354C178.323 314.188 178.306 314.022 178.282 313.858C178.273 313.799 178.26 313.741 178.25 313.683C178.224 313.537 178.193 313.392 178.157 313.249C178.139 313.18 178.118 313.112 178.097 313.045C178.003 312.718 177.878 312.4 177.725 312.096C177.683 312.011 177.639 311.928 177.593 311.845C177.565 311.794 177.542 311.743 177.512 311.692L162.258 285.955C162.303 285.955 162.352 285.959 162.398 285.959C167.856 285.959 171.444 284.6 174.761 283.343C178.646 281.87 182.086 280.579 189.786 281.65C191.207 286.224 194.637 289.915 199.036 291.706L199.046 337.799C185.108 339.804 172.719 348.678 166.483 361.54C166.039 362.454 165.835 363.467 165.89 364.482C165.945 365.497 166.257 366.481 166.797 367.343C167.336 368.204 168.086 368.915 168.976 369.407C169.865 369.899 170.865 370.157 171.882 370.157H238.218C239.235 370.157 240.235 369.899 241.124 369.407C242.013 368.914 242.763 368.204 243.302 367.343C243.842 366.481 244.154 365.497 244.209 364.482C244.264 363.467 244.06 362.454 243.617 361.54C237.38 348.676 224.988 339.801 211.046 337.799L211.036 291.703C215.433 289.912 218.86 286.222 220.281 281.65C227.982 280.579 231.422 281.87 235.306 283.343C238.623 284.6 242.209 285.959 247.668 285.959C247.714 285.959 247.763 285.956 247.809 285.955L232.554 311.692C232.524 311.743 232.501 311.794 232.473 311.845C232.368 312.035 232.273 312.23 232.189 312.431C232.156 312.507 232.125 312.583 232.096 312.661C232.049 312.789 232.006 312.918 231.968 313.049C231.948 313.115 231.927 313.181 231.909 313.249C231.872 313.395 231.84 313.543 231.815 313.691C231.804 313.746 231.792 313.801 231.784 313.856C231.758 314.029 231.741 314.201 231.731 314.374C231.729 314.409 231.723 314.443 231.722 314.477C231.703 314.897 231.728 315.317 231.797 315.73L231.802 315.77C234.122 329.259 245.753 339.05 259.456 339.05C273.159 339.05 284.79 329.259 287.11 315.77L287.114 315.73C287.184 315.316 287.21 314.895 287.191 314.475ZM150.61 289.838L161.82 308.75H139.4L150.61 289.838ZM150.61 327.047C148.139 327.053 145.701 326.487 143.485 325.395C141.269 324.303 139.336 322.713 137.835 320.75H163.385C161.885 322.713 159.952 324.303 157.735 325.395C155.519 326.488 153.081 327.053 150.61 327.047ZM205.034 272.956C207.219 272.956 208.998 274.733 208.998 276.919C208.998 279.104 207.219 280.883 205.034 280.883C202.848 280.883 201.071 279.104 201.071 276.919C201.071 274.733 202.848 272.956 205.034 272.956ZM183.446 358.156C189.099 352.588 196.766 349.366 205.051 349.366C213.336 349.366 221.004 352.588 226.657 358.156H183.446ZM270.667 308.75H248.247L259.457 289.838L270.667 308.75ZM259.457 327.047C256.986 327.053 254.548 326.487 252.332 325.395C250.116 324.303 248.182 322.713 246.682 320.75H272.231C270.731 322.713 268.798 324.303 266.582 325.395C264.366 326.487 261.927 327.053 259.457 327.047ZM253.201 116.883C253.731 117.466 254.14 118.148 254.406 118.89C254.672 119.632 254.789 120.419 254.751 121.206C254.713 121.993 254.52 122.764 254.184 123.477C253.847 124.189 253.374 124.829 252.79 125.358L217.554 157.335C216.452 158.339 215.014 158.894 213.523 158.892C211.984 158.892 210.448 158.303 209.279 157.134L194.772 142.626C194.215 142.069 193.773 141.407 193.472 140.679C193.17 139.952 193.015 139.171 193.015 138.383C193.015 137.596 193.171 136.815 193.472 136.088C193.774 135.36 194.216 134.698 194.773 134.141C195.898 133.016 197.424 132.385 199.016 132.385C200.607 132.385 202.133 133.017 203.258 134.142L213.723 144.607L244.726 116.472C245.309 115.942 245.991 115.533 246.733 115.267C247.475 115.001 248.262 114.884 249.049 114.922C249.836 114.96 250.607 115.153 251.32 115.49C252.032 115.826 252.672 116.299 253.201 116.883ZM298.71 373.639C298.71 360.319 309.546 349.482 322.867 349.482C336.187 349.482 347.024 360.319 347.024 373.639C347.024 383.083 341.469 391.716 332.873 395.631C331.457 396.275 330.678 397.488 330.678 399.044V403.435C330.678 405.026 330.045 406.552 328.92 407.677C327.795 408.803 326.269 409.435 324.678 409.435C323.086 409.435 321.56 408.803 320.435 407.677C319.31 406.552 318.678 405.026 318.678 403.435V399.044C318.678 392.793 322.211 387.301 327.899 384.711C330.022 383.741 331.821 382.182 333.084 380.219C334.347 378.256 335.02 375.973 335.024 373.639C335.024 366.935 329.571 361.482 322.867 361.482C316.164 361.482 310.71 366.935 310.71 373.639C310.71 375.23 310.077 376.756 308.952 377.881C307.827 379.007 306.301 379.639 304.71 379.639C303.118 379.639 301.592 379.007 300.467 377.881C299.342 376.756 298.71 375.23 298.71 373.639ZM332.189 422.08C332.189 426.229 328.827 429.593 324.678 429.593C320.529 429.593 317.165 426.229 317.165 422.08C317.165 417.931 320.529 414.568 324.678 414.568C328.827 414.568 332.189 417.931 332.189 422.08Z" fill="white"/>
</svg>
