<svg width="545" height="545" viewBox="0 0 545 545" fill="none" xmlns="http://www.w3.org/2000/svg">
<path d="M284.913 407.437H273.71C271.873 390.662 257.63 377.562 240.373 377.562H173.028C155.775 377.562 141.528 390.662 139.695 407.437H128.484C109.838 407.437 94.6692 422.61 94.6692 441.256V444.781C94.6692 446.762 95.4561 448.661 96.8567 450.062C98.2574 451.463 100.157 452.25 102.138 452.25H311.263C313.244 452.25 315.143 451.463 316.544 450.062C317.945 448.661 318.732 446.762 318.732 444.781V441.256C318.732 422.61 303.559 407.437 284.913 407.437ZM173.028 392.5H240.373C244.67 392.505 248.832 393.995 252.157 396.717C255.481 399.439 257.763 403.226 258.616 407.437H154.785C155.638 403.226 157.92 399.439 161.244 396.717C164.568 393.995 168.731 392.505 173.028 392.5ZM110.017 437.312C110.925 433.087 113.252 429.301 116.611 426.583C119.97 423.865 124.159 422.38 128.48 422.375H284.909C289.231 422.379 293.421 423.864 296.781 426.582C300.141 429.3 302.469 433.087 303.376 437.312H110.017ZM453.404 345.943C453.214 342.19 452.282 338.512 450.661 335.121C449.04 331.731 446.762 328.696 443.96 326.192L323.762 218.171L342.471 197.349C343.801 197.535 345.13 197.655 346.467 197.655C354.309 197.655 362.114 194.466 367.753 188.188H367.76C378.295 176.455 377.328 158.336 365.602 147.797L315.296 102.589C312.509 100.067 309.249 98.1245 305.705 96.8731C302.162 95.6218 298.405 95.0868 294.652 95.2993C290.899 95.4883 287.221 96.4201 283.831 98.0406C280.441 99.6611 277.405 101.938 274.901 104.74C272.383 107.529 270.442 110.79 269.191 114.334C267.941 117.878 267.405 121.635 267.616 125.387C267.713 127.266 267.996 129.11 268.445 130.895L192.846 215.02C188.198 214.355 183.458 214.846 179.045 216.448C174.632 218.051 170.681 220.715 167.542 224.206C162.433 229.894 159.849 237.224 160.252 244.854C160.656 252.483 164.013 259.492 169.697 264.601L219.999 309.806C225.241 314.526 232.049 317.134 239.104 317.125C246.946 317.125 254.751 313.928 260.39 307.651C263.526 304.158 265.754 299.947 266.877 295.389C268 290.832 267.985 286.068 266.831 281.518L285.522 260.717L405.72 368.749C408.509 371.267 411.769 373.208 415.312 374.458C418.856 375.708 422.612 376.243 426.364 376.031C430.116 375.841 433.793 374.909 437.183 373.288C440.572 371.668 443.607 369.391 446.111 366.59C448.632 363.803 450.575 360.543 451.827 357C453.079 353.456 453.615 349.695 453.404 345.943ZM286.015 114.726C287.295 113.293 288.865 112.148 290.62 111.368C292.376 110.587 294.277 110.187 296.198 110.196C299.571 110.196 302.782 111.428 305.314 113.699L355.616 158.903C358.308 161.329 359.927 164.723 360.12 168.34C360.312 171.958 359.062 175.505 356.643 178.202C354.219 180.893 350.827 182.512 347.211 182.706C343.595 182.9 340.049 181.652 337.351 179.237L316.924 160.875L287.045 134.025C285.707 132.829 284.62 131.379 283.845 129.76C283.071 128.141 282.626 126.384 282.534 124.592C282.434 122.799 282.69 121.004 283.287 119.31C283.884 117.617 284.812 116.059 286.015 114.726ZM249.283 297.665C246.859 300.358 243.466 301.979 239.848 302.172C236.23 302.366 232.683 301.117 229.984 298.7L179.682 253.491C178.344 252.295 177.256 250.846 176.482 249.227C175.707 247.607 175.262 245.851 175.171 244.058C175.069 242.203 175.347 240.347 175.988 238.604C176.629 236.86 177.619 235.266 178.898 233.919C180.176 232.571 181.716 231.499 183.424 230.768C185.131 230.037 186.97 229.662 188.828 229.666C192.077 229.666 195.337 230.82 197.94 233.154L248.253 278.37C250.943 280.795 252.562 284.188 252.755 287.804C252.948 291.421 251.7 294.967 249.283 297.665ZM279.405 245.178L279.39 245.197L258.97 267.921L258.25 267.275L258.235 267.26L207.933 222.051L207.907 222.033L207.201 221.398L276.328 144.477L289.928 156.7L327.362 190.339L327.384 190.358L328.094 191L307.67 213.728L307.659 213.739L279.405 245.178ZM435.001 356.601C433.806 357.94 432.357 359.029 430.738 359.803C429.118 360.578 427.361 361.023 425.568 361.112C421.901 361.359 418.421 360.07 415.706 357.632L295.504 249.611L313.772 229.281L433.971 337.302C436.663 339.727 438.283 343.121 438.476 346.739C438.668 350.357 437.421 353.904 435.001 356.601ZM98.5604 268.354L139.639 290.76C141.378 291.709 143.422 291.927 145.323 291.368C147.223 290.809 148.823 289.517 149.772 287.778C150.72 286.039 150.939 283.994 150.379 282.094C149.82 280.194 148.529 278.593 146.79 277.645L105.712 255.239C103.973 254.291 101.928 254.072 100.028 254.631C98.1272 255.19 96.5268 256.482 95.5785 258.221C94.6302 259.96 94.4116 262.005 94.9708 263.905C95.53 265.805 96.8212 267.406 98.5604 268.354ZM142.992 341.354L113.117 360.025C111.437 361.075 110.243 362.749 109.798 364.679C109.353 366.61 109.692 368.638 110.742 370.317C111.792 371.997 113.466 373.191 115.396 373.636C117.326 374.082 119.354 373.742 121.034 372.692L150.909 354.021C151.741 353.501 152.462 352.822 153.031 352.024C153.601 351.225 154.007 350.322 154.228 349.366C154.448 348.411 154.479 347.421 154.317 346.454C154.155 345.486 153.804 344.56 153.284 343.729C152.764 342.897 152.086 342.176 151.287 341.606C150.488 341.037 149.586 340.63 148.63 340.41C146.7 339.964 144.672 340.304 142.992 341.354ZM102.138 321.546H143.216C145.197 321.546 147.097 320.76 148.497 319.359C149.898 317.958 150.685 316.058 150.685 314.078C150.685 312.097 149.898 310.197 148.497 308.796C147.097 307.396 145.197 306.609 143.216 306.609H102.138C100.157 306.609 98.2574 307.396 96.8567 308.796C95.4561 310.197 94.6692 312.097 94.6692 314.078C94.6692 316.058 95.4561 317.958 96.8567 319.359C98.2574 320.76 100.157 321.546 102.138 321.546Z" fill="white"/>
</svg>
